<svg width="526" height="60" viewBox="0 0 526 60" fill="none" xmlns="http://www.w3.org/2000/svg">
<path d="M17.5542 0.333252L28.2864 18.9999L39.0185 0.333252H56.4895L37.937 30.3333L55.824 59.4999H38.353L28.2864 41.6666L18.2197 59.4999H0.665527L18.5525 30.3333L0 0.333252H17.5542Z" fill="#293138" fill-opacity="0.04"/>
<path d="M72.3154 59.4999V0.333252H97.7731C100.657 0.333252 103.319 0.916586 105.76 2.08325C108.2 3.24992 110.308 4.83325 112.083 6.83325C113.857 8.7777 115.216 10.9721 116.159 13.4166C117.158 15.861 117.657 18.3333 117.657 20.8333C117.657 24.3333 116.825 27.6388 115.161 30.7499C113.552 33.861 111.278 36.4166 108.339 38.4166C105.455 40.361 102.072 41.3333 98.1891 41.3333H88.5385V59.4999H72.3154ZM88.5385 27.1666H97.1076C97.7732 27.1666 98.411 26.9721 99.0211 26.5833C99.6312 26.1944 100.13 25.5277 100.518 24.5833C100.962 23.6388 101.184 22.3888 101.184 20.8333C101.184 19.1666 100.935 17.8888 100.435 16.9999C99.9917 16.0555 99.4093 15.4166 98.6883 15.0833C98.0227 14.6944 97.3571 14.4999 96.6915 14.4999H88.5385V27.1666Z" fill="#293138" fill-opacity="0.04"/>
<path d="M145.135 0.333252H163.272L182.074 59.4999H165.601L162.024 47.9166H146.3L142.806 59.4999H126.25L145.135 0.333252ZM159.445 37.0832L154.203 16.2499L148.713 37.0832H159.445Z" fill="#293138" fill-opacity="0.04"/>
<path d="M250.876 0.333252V59.4999H234.653V36.3333H214.852V59.4999H198.629V0.333252H214.852V22.1666H234.653V0.333252H250.876Z" fill="#293138" fill-opacity="0.04"/>
<path d="M314.77 45.3333V59.4999H272.673V0.333252H314.021V14.4999H288.896V22.8333H310.36V35.9999H288.896V45.3333H314.77Z" fill="#293138" fill-opacity="0.04"/>
<path d="M386.208 0.333252V59.4999H369.984V36.3333H350.184V59.4999H333.961V0.333252H350.184V22.1666H369.984V0.333252H386.208Z" fill="#293138" fill-opacity="0.04"/>
<path d="M408.338 59.4999V0.333252H424.561V36.3333L446.358 0.333252H461.499V59.4999H445.276V23.4999L423.729 59.4999H408.338Z" fill="#293138" fill-opacity="0.04"/>
<path d="M525.689 45.3333V59.4999H483.592V0.333252H524.94V14.4999H499.815V22.8333H521.279V35.9999H499.815V45.3333H525.689Z" fill="#293138" fill-opacity="0.04"/>
</svg>
