<svg width="1400" height="60" viewBox="0 0 1400 60" fill="none" xmlns="http://www.w3.org/2000/svg">
<path d="M11.8671 60C7.37453 60 3.29796 59.1667 -0.362623 57.5C-4.02321 55.7778 -7.18463 53.5 -9.84687 50.6667C-12.4537 47.7778 -14.4781 44.5556 -15.9201 41C-17.3067 37.3889 -18 33.6667 -18 29.8333C-18 25.8889 -17.2512 22.1389 -15.7537 18.5833C-14.2562 15.0278 -12.1763 11.8611 -9.51409 9.08333C-6.79638 6.25 -3.60723 4.02778 0.0533524 2.41667C3.7694 0.805555 7.81824 0 12.1998 0C16.6924 0 20.7689 0.861112 24.4295 2.58333C28.0901 4.25 31.2238 6.52778 33.8306 9.41667C36.4374 12.3056 38.4341 15.5556 39.8206 19.1667C41.2627 22.7222 41.9837 26.3889 41.9837 30.1667C41.9837 34.0556 41.235 37.7778 39.7374 41.3333C38.2954 44.8889 36.2155 48.0833 33.4978 50.9167C30.8356 53.6944 27.6741 55.9167 24.0136 57.5833C20.353 59.1944 16.3041 60 11.8671 60ZM-1.52736 30C-1.52736 32 -1.25004 33.9444 -0.695406 35.8333C-0.140771 37.6667 0.691182 39.3333 1.80045 40.8333C2.90972 42.2778 4.29631 43.4444 5.96021 44.3333C7.67958 45.1667 9.70399 45.5833 12.0335 45.5833C14.3629 45.5833 16.3873 45.1389 18.1067 44.25C19.8261 43.3611 21.2127 42.1667 22.2665 40.6667C23.3757 39.1111 24.1799 37.4167 24.6791 35.5833C25.2338 33.6944 25.5111 31.7778 25.5111 29.8333C25.5111 27.8333 25.2338 25.9167 24.6791 24.0833C24.1245 22.25 23.2925 20.6111 22.1833 19.1667C21.074 17.6667 19.6597 16.5 17.9403 15.6667C16.2209 14.8333 14.2243 14.4167 11.9503 14.4167C9.62079 14.4167 7.59638 14.8611 5.87701 15.75C4.21311 16.6389 2.82652 17.8333 1.71725 19.3333C0.607986 20.7778 -0.223965 22.4444 -0.778599 24.3333C-1.27777 26.1667 -1.52736 28.0556 -1.52736 30Z" fill="#293138" fill-opacity="0.04"/>
<path d="M105.62 14.5H88.6484V59.5H72.4253V14.5H55.3703V0.333334H105.62V14.5Z" fill="#293138" fill-opacity="0.04"/>
<path d="M173.426 44.3333C173.426 47.8889 172.456 50.7778 170.514 53C168.629 55.2222 166.077 56.8611 162.86 57.9167C159.644 58.9722 156.094 59.5 152.211 59.5H123.176V0.333334H157.453C160.226 0.333334 162.611 1.08333 164.608 2.58333C166.66 4.02778 168.213 5.91667 169.266 8.25C170.376 10.5833 170.93 13 170.93 15.5C170.93 18.2222 170.209 20.8611 168.767 23.4167C167.381 25.9722 165.273 27.8889 162.444 29.1667C165.828 30.1667 168.49 31.9167 170.431 34.4167C172.428 36.9167 173.426 40.2222 173.426 44.3333ZM156.954 41C156.954 40 156.759 39.1389 156.371 38.4167C156.038 37.6389 155.567 37.0278 154.957 36.5833C154.347 36.1389 153.626 35.9167 152.794 35.9167H139.399V45.8333H152.211C153.099 45.8333 153.903 45.6389 154.624 45.25C155.345 44.8611 155.9 44.3056 156.288 43.5833C156.732 42.8611 156.954 42 156.954 41ZM139.399 14.1667V23.25H150.464C151.185 23.25 151.879 23.1389 152.544 22.9167C153.21 22.6389 153.764 22.1667 154.208 21.5C154.652 20.8333 154.874 19.8889 154.874 18.6667C154.874 17.5556 154.68 16.6944 154.291 16.0833C153.959 15.4167 153.487 14.9444 152.877 14.6667C152.322 14.3333 151.685 14.1667 150.964 14.1667H139.399Z" fill="#293138" fill-opacity="0.04"/>
<path d="M234.361 45.3333V59.5H192.264V0.333334H233.612V14.5H208.487V22.8333H229.951V36H208.487V45.3333H234.361Z" fill="#293138" fill-opacity="0.04"/>
<path d="M299.559 14.5H282.587V59.5H266.364V14.5H249.309V0.333334H299.559V14.5Z" fill="#293138" fill-opacity="0.04"/>
<path d="M312.977 29.4167C312.977 25.8056 313.643 22.2778 314.974 18.8333C316.36 15.3333 318.357 12.1667 320.964 9.33333C323.571 6.5 326.732 4.25 330.448 2.58333C334.22 0.861112 338.462 0 343.177 0C348.834 0 353.77 1.19445 357.986 3.58334C362.201 5.91667 365.335 9.02778 367.387 12.9167L354.991 21.75C354.27 19.8056 353.216 18.3056 351.829 17.25C350.498 16.1944 349.028 15.4722 347.42 15.0833C345.867 14.6389 344.342 14.4167 342.844 14.4167C340.515 14.4167 338.49 14.8889 336.771 15.8333C335.107 16.7222 333.72 17.9167 332.611 19.4167C331.557 20.9167 330.753 22.5833 330.198 24.4167C329.699 26.25 329.45 28.0833 329.45 29.9167C329.45 31.9722 329.755 33.9444 330.365 35.8333C330.975 37.7222 331.862 39.4167 333.027 40.9167C334.192 42.3611 335.606 43.5 337.27 44.3333C338.989 45.1667 340.903 45.5833 343.01 45.5833C344.508 45.5833 346.033 45.3611 347.586 44.9167C349.139 44.4167 350.554 43.6389 351.829 42.5833C353.105 41.5278 354.075 40.1111 354.741 38.3333L367.969 46.25C366.804 49.1389 364.863 51.6111 362.145 53.6667C359.428 55.7222 356.349 57.3056 352.911 58.4167C349.472 59.4722 346.061 60 342.678 60C338.296 60 334.275 59.1389 330.614 57.4167C327.009 55.6389 323.876 53.3056 321.213 50.4167C318.607 47.4722 316.582 44.1944 315.14 40.5833C313.698 36.9167 312.977 33.1944 312.977 29.4167Z" fill="#293138" fill-opacity="0.04"/>
<path d="M431.398 14.5H414.426V59.5H398.203V14.5H381.148V0.333334H431.398V14.5Z" fill="#293138" fill-opacity="0.04"/>
<path d="M499.204 44.3333C499.204 47.8889 498.233 50.7778 496.292 53C494.406 55.2222 491.855 56.8611 488.638 57.9167C485.421 58.9722 481.871 59.5 477.989 59.5H448.954V0.333334H483.23C486.003 0.333334 488.388 1.08333 490.385 2.58333C492.437 4.02778 493.99 5.91667 495.044 8.25C496.153 10.5833 496.708 13 496.708 15.5C496.708 18.2222 495.987 20.8611 494.545 23.4167C493.158 25.9722 491.05 27.8889 488.222 29.1667C491.605 30.1667 494.267 31.9167 496.208 34.4167C498.205 36.9167 499.204 40.2222 499.204 44.3333ZM482.731 41C482.731 40 482.537 39.1389 482.149 38.4167C481.816 37.6389 481.344 37.0278 480.734 36.5833C480.124 36.1389 479.403 35.9167 478.571 35.9167H465.177V45.8333H477.989C478.876 45.8333 479.68 45.6389 480.401 45.25C481.122 44.8611 481.677 44.3056 482.065 43.5833C482.509 42.8611 482.731 42 482.731 41ZM465.177 14.1667V23.25H476.242C476.963 23.25 477.656 23.1389 478.322 22.9167C478.987 22.6389 479.542 22.1667 479.985 21.5C480.429 20.8333 480.651 19.8889 480.651 18.6667C480.651 17.5556 480.457 16.6944 480.069 16.0833C479.736 15.4167 479.264 14.9444 478.654 14.6667C478.1 14.3333 477.462 14.1667 476.741 14.1667H465.177Z" fill="#293138" fill-opacity="0.04"/>
<path d="M560.138 45.3333V59.5H518.041V0.333334H559.389V14.5H534.264V22.8333H555.729V36H534.264V45.3333H560.138Z" fill="#293138" fill-opacity="0.04"/>
<path d="M631.576 0.333334V59.5H615.353V36.3333H595.553V59.5H579.33V0.333334H595.553V22.1667H615.353V0.333334H631.576Z" fill="#293138" fill-opacity="0.04"/>
<path d="M705.62 0.333334V59.5H689.397V36.3333H669.596V59.5H653.373V0.333334H669.596V22.1667H689.397V0.333334H705.62Z" fill="#293138" fill-opacity="0.04"/>
<path d="M754.039 60C749.547 60 745.47 59.1667 741.81 57.5C738.149 55.7778 734.988 53.5 732.326 50.6667C729.719 47.7778 727.694 44.5556 726.252 41C724.866 37.3889 724.172 33.6667 724.172 29.8333C724.172 25.8889 724.921 22.1389 726.419 18.5833C727.916 15.0278 729.996 11.8611 732.658 9.08333C735.376 6.25 738.565 4.02778 742.226 2.41667C745.942 0.805555 749.991 0 754.372 0C758.865 0 762.941 0.861112 766.602 2.58333C770.262 4.25 773.396 6.52778 776.003 9.41667C778.61 12.3056 780.606 15.5556 781.993 19.1667C783.435 22.7222 784.156 26.3889 784.156 30.1667C784.156 34.0556 783.407 37.7778 781.91 41.3333C780.468 44.8889 778.388 48.0833 775.67 50.9167C773.008 53.6944 769.847 55.9167 766.186 57.5833C762.525 59.1944 758.477 60 754.039 60ZM740.645 30C740.645 32 740.922 33.9444 741.477 35.8333C742.032 37.6667 742.864 39.3333 743.973 40.8333C745.082 42.2778 746.469 43.4444 748.133 44.3333C749.852 45.1667 751.876 45.5833 754.206 45.5833C756.535 45.5833 758.56 45.1389 760.279 44.25C761.998 43.3611 763.385 42.1667 764.439 40.6667C765.548 39.1111 766.352 37.4167 766.851 35.5833C767.406 33.6944 767.683 31.7778 767.683 29.8333C767.683 27.8333 767.406 25.9167 766.851 24.0833C766.297 22.25 765.465 20.6111 764.356 19.1667C763.246 17.6667 761.832 16.5 760.113 15.6667C758.393 14.8333 756.397 14.4167 754.123 14.4167C751.793 14.4167 749.769 14.8611 748.049 15.75C746.385 16.6389 744.999 17.8333 743.89 19.3333C742.78 20.7778 741.948 22.4444 741.394 24.3333C740.895 26.1667 740.645 28.0556 740.645 30Z" fill="#293138" fill-opacity="0.04"/>
<path d="M844.776 45.3333V59.5H802.679V0.333334H844.027V14.5H818.902V22.8333H840.367V36H818.902V45.3333H844.776Z" fill="#293138" fill-opacity="0.04"/>
<path d="M905.865 0.333334L916.598 19L927.33 0.333334H944.801L926.248 30.3333L944.135 59.5H926.664L916.598 41.6667L906.531 59.5H888.977L906.864 30.3333L888.311 0.333334H905.865Z" fill="#293138" fill-opacity="0.04"/>
<path d="M960.627 59.5V0.333334H986.084C988.968 0.333334 991.631 0.916668 994.071 2.08334C996.512 3.25 998.619 4.83333 1000.39 6.83333C1002.17 8.77778 1003.53 10.9722 1004.47 13.4167C1005.47 15.8611 1005.97 18.3333 1005.97 20.8333C1005.97 24.3333 1005.14 27.6389 1003.47 30.75C1001.86 33.8611 999.59 36.4167 996.65 38.4167C993.766 40.3611 990.383 41.3333 986.5 41.3333H976.85V59.5H960.627ZM976.85 27.1667H985.419C986.084 27.1667 986.722 26.9722 987.332 26.5833C987.942 26.1944 988.442 25.5278 988.83 24.5833C989.273 23.6389 989.495 22.3889 989.495 20.8333C989.495 19.1667 989.246 17.8889 988.747 17C988.303 16.0556 987.721 15.4167 987 15.0833C986.334 14.6944 985.668 14.5 985.003 14.5H976.85V27.1667Z" fill="#293138" fill-opacity="0.04"/>
<path d="M1033.45 0.333334H1051.58L1070.39 59.5H1053.91L1050.34 47.9167H1034.61L1031.12 59.5H1014.56L1033.45 0.333334ZM1047.76 37.0833L1042.51 16.25L1037.02 37.0833H1047.76Z" fill="#293138" fill-opacity="0.04"/>
<path d="M1139.19 0.333334V59.5H1122.96V36.3333H1103.16V59.5H1086.94V0.333334H1103.16V22.1667H1122.96V0.333334H1139.19Z" fill="#293138" fill-opacity="0.04"/>
<path d="M1203.08 45.3333V59.5H1160.98V0.333334H1202.33V14.5H1177.21V22.8333H1198.67V36H1177.21V45.3333H1203.08Z" fill="#293138" fill-opacity="0.04"/>
<path d="M1274.52 0.333334V59.5H1258.3V36.3333H1238.5V59.5H1222.27V0.333334H1238.5V22.1667H1258.3V0.333334H1274.52Z" fill="#293138" fill-opacity="0.04"/>
<path d="M1296.65 59.5V0.333334H1312.87V36.3333L1334.67 0.333334H1349.81V59.5H1333.59V23.5L1312.04 59.5H1296.65Z" fill="#293138" fill-opacity="0.04"/>
<path d="M1414 45.3333V59.5H1371.9V0.333334H1413.25V14.5H1388.13V22.8333H1409.59V36H1388.13V45.3333H1414Z" fill="#293138" fill-opacity="0.04"/>
</svg>
