<svg width="698" height="52" viewBox="0 0 698 52" fill="none" xmlns="http://www.w3.org/2000/svg">
<path d="M-14.4524 52C-18.2952 52 -21.7822 51.2778 -24.9134 49.8333C-28.0446 48.3407 -30.7488 46.3667 -33.026 43.9111C-35.2558 41.4074 -36.9874 38.6148 -38.2209 35.5333C-39.407 32.4037 -40 29.1778 -40 25.8556C-40 22.437 -39.3595 19.187 -38.0786 16.1056C-36.7976 13.0241 -35.0186 10.2796 -32.7413 7.87222C-30.4167 5.41667 -27.6887 3.49074 -24.5576 2.09444C-21.3789 0.698148 -17.9156 0 -14.1677 0C-10.3249 0 -6.83788 0.746297 -3.7067 2.23889C-0.575504 3.68333 2.10498 5.65741 4.33476 8.16111C6.56455 10.6648 8.27247 13.4815 9.45852 16.6111C10.692 19.6926 11.3088 22.8704 11.3088 26.1444C11.3088 29.5148 10.6683 32.7407 9.38736 35.8222C8.15386 38.9037 6.37478 41.6722 4.05011 44.1278C1.77288 46.5352 -0.931324 48.4611 -4.06252 49.9056C-7.1937 51.3019 -10.657 52 -14.4524 52ZM-25.9097 26C-25.9097 27.7333 -25.6724 29.4185 -25.198 31.0556C-24.7236 32.6444 -24.012 34.0889 -23.0631 35.3889C-22.1143 36.6407 -20.9282 37.6519 -19.505 38.4222C-18.0342 39.1444 -16.3026 39.5056 -14.31 39.5056C-12.3175 39.5056 -10.5858 39.1204 -9.11511 38.35C-7.6444 37.5796 -6.45834 36.5444 -5.55694 35.2444C-4.6081 33.8963 -3.92019 32.4278 -3.49321 30.8389C-3.01878 29.2019 -2.78157 27.5407 -2.78157 25.8556C-2.78157 24.1222 -3.01878 22.4611 -3.49321 20.8722C-3.96763 19.2833 -4.67926 17.863 -5.62811 16.6111C-6.57695 15.3111 -7.78672 14.3 -9.25743 13.5778C-10.7281 12.8556 -12.4361 12.4944 -14.3812 12.4944C-16.3738 12.4944 -18.1054 12.8796 -19.5761 13.65C-20.9994 14.4204 -22.1854 15.4556 -23.1343 16.7556C-24.0831 18.0074 -24.7948 19.4519 -25.2692 21.0889C-25.6962 22.6778 -25.9097 24.3148 -25.9097 26Z" fill="#293138" fill-opacity="0.04"/>
<path d="M65.7421 12.5667H51.2247V51.5667H37.3479V12.5667H22.7594V0.288889H65.7421V12.5667Z" fill="#293138" fill-opacity="0.04"/>
<path d="M123.742 38.4222C123.742 41.5037 122.912 44.0074 121.251 45.9333C119.638 47.8593 117.456 49.2796 114.704 50.1944C111.952 51.1093 108.916 51.5667 105.595 51.5667H80.7592V0.288889H110.078C112.451 0.288889 114.491 0.93889 116.199 2.23889C117.954 3.49074 119.282 5.12778 120.184 7.15C121.133 9.17222 121.607 11.2667 121.607 13.4333C121.607 15.7926 120.99 18.0796 119.757 20.2944C118.571 22.5093 116.768 24.1704 114.348 25.2778C117.242 26.1444 119.52 27.6611 121.18 29.8278C122.888 31.9944 123.742 34.8593 123.742 38.4222ZM109.652 35.5333C109.652 34.6667 109.485 33.9204 109.153 33.2944C108.869 32.6204 108.465 32.0907 107.944 31.7056C107.422 31.3204 106.805 31.1278 106.093 31.1278H94.636V39.7222H105.595C106.354 39.7222 107.042 39.5537 107.659 39.2167C108.276 38.8796 108.75 38.3982 109.082 37.7722C109.462 37.1463 109.652 36.4 109.652 35.5333ZM94.636 12.2778V20.15H104.101C104.718 20.15 105.311 20.0537 105.88 19.8611C106.449 19.6204 106.924 19.2111 107.303 18.6333C107.683 18.0556 107.872 17.237 107.872 16.1778C107.872 15.2148 107.706 14.4685 107.374 13.9389C107.09 13.3611 106.686 12.9519 106.165 12.7111C105.69 12.4222 105.144 12.2778 104.528 12.2778H94.636Z" fill="#293138" fill-opacity="0.04"/>
<path d="M175.864 39.2889V51.5667H139.855V0.288889H175.224V12.5667H153.732V19.7889H172.092V31.2H153.732V39.2889H175.864Z" fill="#293138" fill-opacity="0.04"/>
<path d="M231.633 12.5667H217.116V51.5667H203.239V12.5667H188.651V0.288889H231.633V12.5667Z" fill="#293138" fill-opacity="0.04"/>
<path d="M243.111 25.4944C243.111 22.3648 243.68 19.3074 244.818 16.3222C246.005 13.2889 247.712 10.5444 249.942 8.08889C252.172 5.63333 254.876 3.68333 258.055 2.23889C261.281 0.746297 264.91 0 268.943 0C273.782 0 278.004 1.03519 281.61 3.10556C285.216 5.12778 287.896 7.82408 289.651 11.1944L279.048 18.85C278.431 17.1648 277.53 15.8648 276.344 14.95C275.205 14.0352 273.948 13.4093 272.572 13.0722C271.244 12.687 269.939 12.4944 268.658 12.4944C266.666 12.4944 264.934 12.9037 263.463 13.7222C262.04 14.4926 260.854 15.5278 259.905 16.8278C259.004 18.1278 258.316 19.5722 257.841 21.1611C257.414 22.75 257.201 24.3389 257.201 25.9278C257.201 27.7093 257.462 29.4185 257.984 31.0556C258.506 32.6926 259.265 34.1611 260.261 35.4611C261.257 36.713 262.467 37.7 263.89 38.4222C265.361 39.1444 266.998 39.5056 268.801 39.5056C270.082 39.5056 271.386 39.313 272.715 38.9278C274.043 38.4944 275.253 37.8204 276.344 36.9056C277.435 35.9907 278.265 34.763 278.835 33.2222L290.15 40.0833C289.153 42.587 287.493 44.7296 285.168 46.5111C282.843 48.2926 280.21 49.6648 277.269 50.6278C274.328 51.5426 271.41 52 268.516 52C264.768 52 261.328 51.2537 258.197 49.7611C255.113 48.2204 252.433 46.1982 250.156 43.6944C247.926 41.1426 246.194 38.3019 244.961 35.1722C243.727 31.9944 243.111 28.7685 243.111 25.4944Z" fill="#293138" fill-opacity="0.04"/>
<path d="M344.405 12.5667H329.888V51.5667H316.011V12.5667H301.422V0.288889H344.405V12.5667Z" fill="#293138" fill-opacity="0.04"/>
<path d="M402.405 38.4222C402.405 41.5037 401.574 44.0074 399.914 45.9333C398.301 47.8593 396.119 49.2796 393.367 50.1944C390.615 51.1093 387.579 51.5667 384.258 51.5667H359.422V0.288889H388.741C391.113 0.288889 393.154 0.93889 394.861 2.23889C396.617 3.49074 397.945 5.12778 398.847 7.15C399.795 9.17222 400.27 11.2667 400.27 13.4333C400.27 15.7926 399.653 18.0796 398.42 20.2944C397.233 22.5093 395.431 24.1704 393.011 25.2778C395.905 26.1444 398.182 27.6611 399.843 29.8278C401.551 31.9944 402.405 34.8593 402.405 38.4222ZM388.314 35.5333C388.314 34.6667 388.148 33.9204 387.816 33.2944C387.532 32.6204 387.128 32.0907 386.606 31.7056C386.085 31.3204 385.468 31.1278 384.756 31.1278H373.299V39.7222H384.258C385.017 39.7222 385.705 39.5537 386.322 39.2167C386.939 38.8796 387.413 38.3982 387.745 37.7722C388.125 37.1463 388.314 36.4 388.314 35.5333ZM373.299 12.2778V20.15H382.764C383.38 20.15 383.973 20.0537 384.543 19.8611C385.112 19.6204 385.586 19.2111 385.966 18.6333C386.346 18.0556 386.535 17.237 386.535 16.1778C386.535 15.2148 386.369 14.4685 386.037 13.9389C385.753 13.3611 385.349 12.9519 384.827 12.7111C384.353 12.4222 383.807 12.2778 383.191 12.2778H373.299Z" fill="#293138" fill-opacity="0.04"/>
<path d="M454.527 39.2889V51.5667H418.518V0.288889H453.886V12.5667H432.395V19.7889H450.755V31.2H432.395V39.2889H454.527Z" fill="#293138" fill-opacity="0.04"/>
<path d="M515.633 0.288889V51.5667H501.757V31.4889H484.82V51.5667H470.943V0.288889H484.82V19.2111H501.757V0.288889H515.633Z" fill="#293138" fill-opacity="0.04"/>
<path d="M578.969 0.288889V51.5667H565.092V31.4889H548.155V51.5667H534.278V0.288889H548.155V19.2111H565.092V0.288889H578.969Z" fill="#293138" fill-opacity="0.04"/>
<path d="M620.386 52C616.543 52 613.056 51.2778 609.925 49.8333C606.794 48.3407 604.089 46.3667 601.812 43.9111C599.582 41.4074 597.851 38.6148 596.617 35.5333C595.431 32.4037 594.838 29.1778 594.838 25.8556C594.838 22.437 595.479 19.187 596.76 16.1056C598.04 13.0241 599.82 10.2796 602.097 7.87222C604.422 5.41667 607.149 3.49074 610.281 2.09444C613.459 0.698148 616.922 0 620.67 0C624.513 0 628 0.746297 631.131 2.23889C634.263 3.68333 636.943 5.65741 639.173 8.16111C641.403 10.6648 643.111 13.4815 644.297 16.6111C645.53 19.6926 646.147 22.8704 646.147 26.1444C646.147 29.5148 645.506 32.7407 644.226 35.8222C642.992 38.9037 641.213 41.6722 638.888 44.1278C636.611 46.5352 633.907 48.4611 630.776 49.9056C627.644 51.3019 624.181 52 620.386 52ZM608.928 26C608.928 27.7333 609.166 29.4185 609.64 31.0556C610.115 32.6444 610.826 34.0889 611.775 35.3889C612.724 36.6407 613.91 37.6519 615.333 38.4222C616.804 39.1444 618.536 39.5056 620.528 39.5056C622.521 39.5056 624.252 39.1204 625.723 38.35C627.194 37.5796 628.38 36.5444 629.281 35.2444C630.23 33.8963 630.918 32.4278 631.345 30.8389C631.819 29.2019 632.057 27.5407 632.057 25.8556C632.057 24.1222 631.819 22.4611 631.345 20.8722C630.87 19.2833 630.159 17.863 629.21 16.6111C628.261 15.3111 627.051 14.3 625.581 13.5778C624.11 12.8556 622.402 12.4944 620.457 12.4944C618.464 12.4944 616.733 12.8796 615.262 13.65C613.839 14.4204 612.653 15.4556 611.704 16.7556C610.755 18.0074 610.043 19.4519 609.569 21.0889C609.142 22.6778 608.928 24.3148 608.928 26Z" fill="#293138" fill-opacity="0.04"/>
<path d="M698 39.2889V51.5667H661.991V0.288889H697.359V12.5667H675.868V19.7889H694.228V31.2H675.868V39.2889H698Z" fill="#293138" fill-opacity="0.04"/>
</svg>
