<svg width="24" height="24" viewBox="0 0 24 24" fill="none" xmlns="http://www.w3.org/2000/svg">
<path d="M20.25 6.75008H16.9718C17.4599 6.15456 17.7004 5.39415 17.6434 4.62626C17.5864 3.85837 17.2363 3.1418 16.6656 2.62489C16.0949 2.10797 15.3472 1.83028 14.5775 1.84931C13.8077 1.86834 13.0747 2.18263 12.5303 2.72712C12.3131 2.95342 12.134 3.21339 12 3.49694C11.8659 3.21339 11.6868 2.95341 11.4696 2.72707C10.9252 2.1826 10.1922 1.86832 9.42243 1.8493C8.65266 1.83029 7.90506 2.10798 7.33437 2.6249C6.76368 3.14183 6.4136 3.8584 6.35661 4.62628C6.29961 5.39417 6.54006 6.15457 7.02818 6.75008H3.75C3.35231 6.75054 2.97104 6.90872 2.68984 7.18992C2.40863 7.47113 2.25045 7.8524 2.25 8.25008V11.2501C2.25045 11.6478 2.40863 12.029 2.68984 12.3102C2.97104 12.5915 3.35231 12.7496 3.75 12.7501V18.7501C3.75045 19.1478 3.90864 19.529 4.18984 19.8102C4.47105 20.0914 4.85231 20.2496 5.25 20.2501H18.75C19.1477 20.2496 19.529 20.0914 19.8102 19.8102C20.0914 19.529 20.2495 19.1478 20.25 18.7501V12.7501C20.6477 12.7496 21.029 12.5915 21.3102 12.3102C21.5914 12.029 21.7495 11.6478 21.75 11.2501V8.25008C21.7495 7.8524 21.5914 7.47113 21.3102 7.18992C21.029 6.90872 20.6477 6.75054 20.25 6.75008ZM13.5909 3.78778C13.7302 3.64843 13.8955 3.53789 14.0776 3.46246C14.2596 3.38703 14.4546 3.34819 14.6517 3.34816C14.8487 3.34813 15.0438 3.38692 15.2258 3.4623C15.4078 3.53768 15.5732 3.64818 15.7125 3.78749C15.8518 3.92681 15.9623 4.09219 16.0377 4.27422C16.1131 4.45624 16.1519 4.65133 16.1519 4.84835C16.1519 5.04537 16.113 5.24045 16.0376 5.42245C15.9622 5.60446 15.8516 5.76982 15.7123 5.9091C15.2491 6.37234 13.9099 6.63246 12.782 6.71811C12.8676 5.59009 13.1277 4.25097 13.5909 3.78778ZM8.28763 3.78778C8.56917 3.5069 8.95062 3.34916 9.34831 3.34916C9.746 3.34915 10.1275 3.50689 10.409 3.78776C10.8723 4.25099 11.1324 5.59023 11.218 6.71809C10.09 6.63242 8.75089 6.37229 8.28772 5.9091C8.00684 5.62758 7.8491 5.24614 7.84908 4.84846C7.84906 4.45078 8.00678 4.06933 8.28763 3.78778ZM20.25 11.2501H12.75V18.0001C12.75 18.199 12.671 18.3898 12.5303 18.5304C12.3897 18.6711 12.1989 18.7501 12 18.7501C11.8011 18.7501 11.6103 18.6711 11.4697 18.5304C11.329 18.3898 11.25 18.199 11.25 18.0001V11.2501H3.75V8.25008H11.25V11.2501H12.75V8.25008H20.25L20.2509 11.25L20.25 11.2501Z" fill="white"/>
</svg>
