<svg width="24" height="25" viewBox="0 0 24 25" fill="none" xmlns="http://www.w3.org/2000/svg">
<path d="M18.7499 6.49794C18.7498 6.47395 18.7486 6.44999 18.7463 6.42607C18.7452 6.41476 18.7431 6.40378 18.7415 6.39261C18.7396 6.37951 18.7381 6.36642 18.7355 6.35347C18.733 6.34079 18.7295 6.32852 18.7263 6.31607C18.7235 6.30481 18.721 6.2935 18.7176 6.28233C18.7139 6.27011 18.7094 6.25834 18.7051 6.2464C18.7011 6.23523 18.6975 6.22401 18.6929 6.21302C18.6883 6.20199 18.6829 6.19146 18.6779 6.1807C18.6725 6.16921 18.6674 6.15763 18.6613 6.14642C18.6559 6.1363 18.6498 6.12673 18.6439 6.11689C18.6373 6.10572 18.6309 6.09436 18.6236 6.08347C18.6165 6.07285 18.6086 6.06282 18.6009 6.05262C18.5939 6.04323 18.5874 6.03362 18.5799 6.02446C18.5659 6.00748 18.5511 5.99123 18.5357 5.97553C18.5338 5.9736 18.5322 5.97154 18.5303 5.96962C18.5282 5.96751 18.5258 5.96573 18.5237 5.96362C18.5082 5.94851 18.4922 5.93382 18.4755 5.92004C18.4665 5.91267 18.457 5.90622 18.4477 5.8993C18.4374 5.89157 18.4272 5.88355 18.4165 5.87632C18.4058 5.86918 18.3947 5.863 18.3838 5.85646C18.3737 5.85041 18.3638 5.8441 18.3535 5.83856C18.3426 5.83275 18.3314 5.82785 18.3203 5.82258C18.3092 5.81732 18.2982 5.81178 18.2868 5.80702C18.2763 5.80272 18.2657 5.79924 18.255 5.79544C18.2425 5.79091 18.2302 5.7861 18.2174 5.78225C18.2072 5.77914 18.1968 5.77694 18.1864 5.77429C18.173 5.77085 18.1598 5.76714 18.1461 5.76444C18.1348 5.7622 18.1233 5.76092 18.1119 5.75922C18.0991 5.7573 18.0865 5.75497 18.0735 5.75368C18.0546 5.75185 18.0356 5.75121 18.0166 5.7508C18.011 5.75073 18.0056 5.75 18 5.75H8.25002C8.0511 5.75 7.86034 5.82902 7.71969 5.96967C7.57904 6.11032 7.50002 6.30109 7.50002 6.5C7.50002 6.69891 7.57904 6.88968 7.71969 7.03033C7.86034 7.17098 8.0511 7.25 8.25002 7.25H16.1893L5.4697 17.9696C5.32904 18.1103 5.25001 18.3011 5.25 18.5C5.24999 18.6989 5.329 18.8897 5.46965 19.0303C5.6103 19.171 5.80107 19.25 5.99998 19.25C6.1989 19.25 6.38967 19.171 6.53034 19.0304L17.25 8.31069V16.25C17.25 16.4489 17.329 16.6397 17.4697 16.7803C17.6103 16.921 17.8011 17 18 17C18.1989 17 18.3897 16.921 18.5303 16.7803C18.671 16.6397 18.75 16.4489 18.75 16.25V6.5L18.7499 6.49794Z" fill="white"/>
</svg>
