<svg width="24" height="25" viewBox="0 0 24 25" fill="none" xmlns="http://www.w3.org/2000/svg">
<path d="M21.7441 20.3738C20.3446 17.9634 18.1035 16.1556 15.4516 15.2979C16.722 14.542 17.7091 13.3899 18.2614 12.0186C18.8136 10.6473 18.9004 9.13263 18.5084 7.70724C18.1164 6.28184 17.2673 5.02454 16.0916 4.12846C14.9158 3.23238 13.4783 2.74707 12 2.74707C10.5217 2.74707 9.08428 3.23238 7.9085 4.12846C6.73273 5.02454 5.88364 6.28184 5.49165 7.70724C5.09965 9.13263 5.18644 10.6473 5.73868 12.0186C6.29091 13.3899 7.27805 14.542 8.54848 15.2979C5.89668 16.1556 3.65557 17.9633 2.25611 20.3736C2.19015 20.4876 2.15537 20.6169 2.15527 20.7486C2.15518 20.8804 2.18977 21.0098 2.25558 21.1239C2.32138 21.238 2.41607 21.3327 2.53012 21.3986C2.64417 21.4645 2.77356 21.4992 2.90527 21.4992L21.0949 21.4994C21.2266 21.4994 21.356 21.4647 21.4701 21.3988C21.5841 21.3329 21.6788 21.2382 21.7446 21.1241C21.8104 21.01 21.845 20.8806 21.8449 20.7488C21.8448 20.6171 21.81 20.4878 21.7441 20.3738L21.7441 20.3738Z" fill="#EDF1F5"/>
</svg>
