<svg width="24" height="25" viewBox="0 0 24 25" fill="none" xmlns="http://www.w3.org/2000/svg">
<path d="M21.7491 5.73212C21.7488 5.71825 21.7481 5.70441 21.747 5.69058C21.7461 5.6793 21.745 5.66809 21.7436 5.65696C21.742 5.644 21.74 5.63112 21.7377 5.61823C21.7357 5.60661 21.7334 5.59507 21.7309 5.58365C21.7281 5.57143 21.7249 5.55932 21.7215 5.54723C21.7182 5.53568 21.7149 5.52423 21.7111 5.51292C21.7072 5.50111 21.7028 5.48948 21.6983 5.47786C21.694 5.46674 21.6895 5.45573 21.6847 5.4449C21.6796 5.43346 21.6741 5.42222 21.6684 5.411C21.663 5.40036 21.6574 5.38983 21.6516 5.37949C21.6454 5.3688 21.639 5.35829 21.6324 5.34783C21.6256 5.33728 21.6187 5.32693 21.6115 5.31675C21.6047 5.30716 21.5976 5.29775 21.5903 5.28841C21.5821 5.27791 21.5736 5.26769 21.5648 5.25765C21.5607 5.25291 21.5571 5.24788 21.5529 5.24321C21.5493 5.23928 21.5453 5.23594 21.5416 5.23209C21.5326 5.22261 21.5232 5.21353 21.5137 5.20453C21.5048 5.1962 21.4959 5.18794 21.4868 5.18009C21.4778 5.1724 21.4685 5.16512 21.4591 5.15784C21.4488 5.14987 21.4386 5.14198 21.4281 5.13463C21.4189 5.12825 21.4094 5.12232 21.4 5.11634C21.3888 5.10929 21.3777 5.10227 21.3663 5.09586C21.3563 5.09027 21.346 5.08522 21.3358 5.08009C21.3245 5.07444 21.3133 5.06874 21.3018 5.06368C21.2905 5.05874 21.2791 5.05444 21.2676 5.05004C21.2565 5.04583 21.2455 5.04155 21.2344 5.03789C21.2222 5.03388 21.2098 5.03054 21.1975 5.02715C21.1864 5.02413 21.1753 5.02109 21.1642 5.01859C21.1518 5.01582 21.1392 5.01365 21.1267 5.0115C21.1148 5.00948 21.1029 5.00752 21.091 5.00607C21.0791 5.00463 21.0672 5.00367 21.0552 5.0028C21.0421 5.00184 21.029 5.00108 21.0158 5.00081C21.0105 5.00069 21.0054 5 21 5H3C2.99496 5 2.99011 5.00066 2.98508 5.00076C2.97125 5.00103 2.95743 5.00181 2.94365 5.00284C2.93225 5.00371 2.92094 5.0046 2.90973 5.00595C2.89714 5.00746 2.88464 5.00952 2.8721 5.0117C2.86015 5.01376 2.84821 5.01579 2.83649 5.01842C2.82467 5.02106 2.81305 5.02426 2.80133 5.02747C2.78952 5.03072 2.77771 5.0339 2.76613 5.0377C2.75441 5.04154 2.74288 5.04601 2.73129 5.05045C2.72035 5.05466 2.70937 5.05878 2.69865 5.06347C2.68671 5.06871 2.67503 5.07462 2.66331 5.08052C2.65347 5.08547 2.64362 5.09029 2.63406 5.09565C2.62234 5.10222 2.6109 5.10943 2.59945 5.11669C2.5903 5.1225 2.58105 5.12827 2.57217 5.13447C2.56142 5.14193 2.55102 5.14994 2.54063 5.15804C2.53139 5.16521 2.52223 5.17239 2.51335 5.17999C2.5041 5.18789 2.49518 5.1962 2.48621 5.20464C2.47673 5.21357 2.46744 5.22263 2.45842 5.23204C2.45476 5.23591 2.45073 5.23927 2.44711 5.24321C2.44286 5.24788 2.43928 5.25291 2.43517 5.25765C2.42642 5.2677 2.41791 5.27791 2.40967 5.28841C2.40239 5.29775 2.39529 5.30716 2.38852 5.31675C2.38128 5.32693 2.37437 5.33728 2.36764 5.34783C2.36101 5.35829 2.35455 5.36879 2.34842 5.37948C2.34256 5.38983 2.33702 5.40036 2.33162 5.411C2.32594 5.42221 2.3204 5.43345 2.31528 5.4449C2.31047 5.45572 2.30603 5.46673 2.30173 5.47786C2.29719 5.48948 2.2928 5.50111 2.28886 5.51292C2.28511 5.52423 2.28177 5.53567 2.27852 5.54723C2.27513 5.55932 2.27193 5.57142 2.26913 5.58365C2.26657 5.59507 2.26433 5.6066 2.26227 5.61823C2.25998 5.63112 2.25796 5.644 2.25636 5.65696C2.25499 5.6681 2.25387 5.67931 2.25302 5.69058C2.25192 5.70443 2.25122 5.71827 2.25091 5.73212C2.25078 5.73812 2.25 5.74396 2.25 5.75V18.5C2.25045 18.8977 2.40864 19.279 2.68984 19.5602C2.97105 19.8414 3.35231 19.9995 3.75 20H20.25C20.6477 19.9995 21.029 19.8414 21.3102 19.5602C21.5914 19.279 21.7495 18.8977 21.75 18.5V5.75C21.75 5.74396 21.7492 5.73812 21.7491 5.73212ZM3.75 7.45496L9.25369 12.5L3.75 17.5451V7.45496ZM4.92819 18.5L10.3637 13.5175L11.4932 14.5529C11.6315 14.6797 11.8123 14.75 12 14.75C12.1877 14.75 12.3685 14.6797 12.5068 14.5529L13.6364 13.5175L19.0719 18.5H4.92819ZM14.7463 12.5L20.2501 7.45483L20.2509 17.5458L14.7463 12.5Z" fill="#EDF1F5"/>
</svg>
