<svg width="1400" height="178" viewBox="0 0 1400 178" fill="none" xmlns="http://www.w3.org/2000/svg">
<path d="M1489.42 131.843C1482.98 145.889 1472.41 157.64 1459.11 165.523C1444.96 173.632 1428.87 177.725 1412.56 177.359C1401.76 177.412 1391.02 175.749 1380.74 172.434C1371.07 169.238 1362.06 164.313 1354.16 157.898C1344 149.984 1335.83 139.811 1330.29 128.189C1324.91 116.345 1322.19 103.465 1322.34 90.4582C1321.94 78.5009 1324.03 66.591 1328.46 55.4771C1332.9 44.3633 1339.59 34.2858 1348.12 25.8782C1356.9 17.4348 1367.29 10.8405 1378.68 6.48737C1390.06 2.13428 1402.21 0.111307 1414.39 0.538722C1428.48 0.206054 1442.43 3.40115 1454.97 9.83252C1467.2 16.7232 1477.49 26.5869 1484.88 38.5083L1463.4 54.3951C1459.23 44.7705 1452.75 36.3151 1444.55 29.7705C1437.16 24.4051 1428.22 21.6138 1419.09 21.8271C1412.39 21.5828 1405.75 23.0797 1399.8 26.1711C1393.86 29.2625 1388.83 33.8423 1385.19 39.4615C1376.33 54.5066 1372.15 71.8429 1373.18 89.2667C1372.41 106.23 1377.24 122.976 1386.94 136.927C1391.04 142.669 1396.48 147.326 1402.79 150.495C1409.1 153.665 1416.08 155.252 1423.14 155.118C1432.53 154.969 1441.57 151.603 1448.76 145.586C1457.51 138.203 1464.47 128.943 1469.13 118.498L1489.42 131.843Z" fill="#1A1A18" fill-opacity="0.05"/>
<path d="M1292.11 4.19263H1244.69V173.07H1292.11V4.19263Z" fill="#1A1A18" fill-opacity="0.05"/>
<path d="M1128.84 173.07V26.9108H1083.73V4.19263H1221.38V26.9108H1176.26V173.07H1128.84Z" fill="#1A1A18" fill-opacity="0.05"/>
<path d="M974.578 130.096C977.347 137.308 981.792 143.76 987.547 148.922C992.262 153.103 998.346 155.419 1004.65 155.435C1010.49 155.721 1016.21 153.695 1020.57 149.795C1022.57 148.015 1024.16 145.821 1025.23 143.366C1026.3 140.912 1026.83 138.254 1026.77 135.577C1026.81 130.949 1025.17 126.465 1022.16 122.947C1017.77 118.258 1012.57 114.409 1006.8 111.588L1000.12 107.934C990.469 103.202 981.188 97.7591 972.35 91.6496C966.707 87.0895 962.074 81.4092 958.745 74.9684C955.955 68.9234 954.594 62.3193 954.766 55.6659C954.534 48.2656 955.875 40.9002 958.7 34.0545C961.525 27.2088 965.77 21.0382 971.156 15.9488C982.794 5.3602 998.151 -0.207426 1013.88 0.45916C1025.28 0.200711 1036.52 3.11637 1046.34 8.87918C1055.82 14.6363 1063.38 23.0665 1068.06 33.1066L1048.41 46.2927C1045.79 39.2243 1041.38 32.9563 1035.6 28.1023C1030.31 24.0002 1023.76 21.8406 1017.06 21.9858C1011.57 21.8401 1006.23 23.8342 1002.19 27.5462C1000.28 29.3355 998.77 31.5043 997.756 33.9126C996.742 36.3208 996.245 38.9147 996.298 41.5266C996.267 46.1168 998.038 50.5365 1001.23 53.8389C1006.85 58.9594 1013.27 63.1193 1020.25 66.1512L1023.43 67.7399C1034.33 72.6101 1044.79 78.4035 1054.7 85.0565C1060.31 89.3076 1064.93 94.7291 1068.22 100.943C1071.07 107.172 1072.48 113.957 1072.36 120.802C1072.62 128.418 1071.19 135.996 1068.17 142.998C1065.16 150 1060.64 156.253 1054.94 161.313C1042.41 172.152 1026.23 177.831 1009.67 177.2C997.383 177.462 985.25 174.475 974.498 168.542C964.469 162.829 956.378 154.254 951.266 143.917L974.578 130.096Z" fill="#1A1A18" fill-opacity="0.05"/>
<path d="M919.594 4.19263H872.174V173.07H919.594V4.19263Z" fill="#1A1A18" fill-opacity="0.05"/>
<path d="M522.739 88.9489C521.848 106.069 525.44 123.125 533.162 138.436C535.802 143.724 539.865 148.172 544.897 151.281C549.928 154.39 555.728 156.037 561.646 156.037C567.563 156.037 573.363 154.39 578.395 151.281C583.426 148.172 587.49 143.724 590.129 138.436C597.851 123.125 601.443 106.069 600.552 88.9489C601.436 71.8641 597.872 54.8421 590.209 39.5408C587.586 34.2114 583.52 29.7224 578.471 26.5831C573.422 23.4438 567.594 21.7798 561.646 21.7798C555.698 21.7798 549.869 23.4438 544.821 26.5831C539.772 29.7224 535.706 34.2114 533.083 39.5408C525.419 54.8421 521.856 71.8641 522.739 88.9489M561.566 0.776934C573.065 0.717752 584.484 2.68062 595.301 6.57563C606.222 10.3263 616.234 16.322 624.689 24.1757C633.145 32.0294 639.857 41.5664 644.392 52.1708C649.265 63.8981 651.701 76.4915 651.552 89.1872C651.723 101.815 649.257 114.341 644.312 125.965C639.756 136.534 633.045 146.039 624.607 153.875C616.169 161.712 606.188 167.708 595.301 171.481C573.496 179.161 549.716 179.161 527.911 171.481C517.73 167.991 508.307 162.599 500.143 155.594C490.941 147.451 483.682 137.354 478.9 126.045C473.964 114.361 471.5 101.786 471.66 89.1077C471.549 76.4771 474.04 63.9586 478.979 52.3297C483.81 41.1131 491.032 31.0831 500.143 22.9391C508.223 15.901 517.602 10.5045 527.752 7.05223C538.577 3.03285 550.017 0.909893 561.566 0.776934V0.776934Z" fill="#1A1A18" fill-opacity="0.05"/>
<path d="M356.766 173.07V4.19263H404.185V150.272H465.608V173.07H356.766Z" fill="#1A1A18" fill-opacity="0.05"/>
<path d="M266.926 146.38C255.549 156.304 242.479 164.107 228.338 169.416C214.081 174.699 198.99 177.39 183.782 177.359C172.604 177.479 161.48 175.789 150.843 172.355C141.026 169.076 131.886 164.042 123.871 157.501C113.673 149.429 105.5 139.093 100.002 127.316C94.5375 114.992 91.8227 101.63 92.0459 88.1546C92.0135 75.594 94.7289 63.1778 100.002 51.7738C105.133 40.3236 112.741 30.1506 122.28 21.9859C130.525 14.9277 140.063 9.53254 150.366 6.09912C161.272 2.37163 172.733 0.518348 184.26 0.618163C198.351 0.285495 212.301 3.48059 224.837 9.91196C237.131 16.783 247.457 26.6824 254.833 38.6671L233.35 54.554C229.175 44.909 222.668 36.4484 214.414 29.9294C207.061 24.5646 198.139 21.7724 189.034 21.9859C182.326 21.7356 175.668 23.2293 169.713 26.3206C163.757 29.4119 158.708 33.9948 155.06 39.6203C146.161 54.6508 141.977 71.9983 143.046 89.4256C142.254 106.357 147.001 123.086 156.572 137.086C160.482 142.797 165.746 147.454 171.896 150.642C178.046 153.829 184.89 155.449 191.818 155.356C196.984 155.361 202.116 154.53 207.015 152.893C212.031 150.927 216.724 148.223 220.939 144.871V116.195H206.617V93.4767H266.926V146.38Z" fill="#1A1A18" fill-opacity="0.05"/>
<path d="M-19.9607 25.0838V76.0805H-9.77658C-1.24758 76.8133 7.29064 74.7797 14.5698 70.2819C17.2469 67.7237 19.3101 64.5945 20.6052 61.1282C21.9003 57.6618 22.3938 53.948 22.0488 50.2644C22.3721 46.7552 21.9119 43.218 20.7012 39.9077C19.4905 36.5974 17.5594 33.5963 15.0472 31.1208C8.87284 26.5294 1.24071 24.3281 -6.43492 24.9249L-19.9607 25.0838ZM-19.9607 96.5746V152.178H-8.82181C0.46771 153.004 9.77264 150.772 17.6728 145.824C20.5345 143.047 22.7351 139.664 24.1122 135.924C25.4892 132.185 26.0076 128.184 25.6291 124.218C25.8978 120.392 25.3248 116.553 23.9503 112.972C22.5759 109.39 20.4333 106.153 17.6728 103.485C10.8976 98.5354 2.57226 96.1686 -5.79841 96.8129L-19.9607 96.5746ZM-66.1074 172.911V4.19262H10.6712C26.0497 3.32491 41.2717 7.66299 53.8741 16.5049C59.0473 20.4425 63.1942 25.5662 65.9641 31.4426C68.7339 37.319 70.0452 43.775 69.7868 50.2644C70.1997 59.4224 67.0005 68.377 60.8757 75.2068C53.6906 82.1737 44.4075 86.5844 34.4606 87.7574C45.9024 90.115 56.4568 95.6174 64.9334 103.644C68.3553 107.054 71.0499 111.121 72.8549 115.598C74.6599 120.076 75.5379 124.873 75.4357 129.699C75.78 135.898 74.5964 142.086 71.9887 147.723C69.3809 153.359 65.4286 158.271 60.4778 162.028C47.4876 170.244 32.2229 174.138 16.8771 173.149L-66.1074 172.911Z" fill="#1A1A18" fill-opacity="0.05"/>
<path d="M843.045 146.062C831.714 156.128 818.637 164.042 804.457 169.416C790.199 174.699 775.109 177.39 759.901 177.359C748.723 177.479 737.599 175.789 726.962 172.355C715.901 168.69 705.699 162.823 696.974 155.109C688.249 147.395 681.182 137.994 676.201 127.474C670.781 115.165 668.068 101.838 668.244 88.3928C668.261 75.8119 670.974 63.3801 676.201 51.9325C681.204 40.3372 688.765 30.0191 698.319 21.7475C706.579 14.7089 716.112 9.31601 726.405 5.86072C737.337 2.12734 748.825 0.274023 760.379 0.37976C774.47 0.0470918 788.42 3.24218 800.956 9.67356C813.191 16.5947 823.48 26.4848 830.872 38.4287L809.39 54.3156C805.248 44.6505 798.769 36.1623 790.533 29.6115C783.144 24.2568 774.201 21.4667 765.073 21.6681C758.365 21.4178 751.707 22.9114 745.752 26.0028C739.796 29.0941 734.747 33.677 731.099 39.3025C722.259 54.3567 718.079 71.686 719.085 89.1077C718.27 106.053 723.049 122.798 732.691 136.768C736.578 142.483 741.827 147.145 747.965 150.334C754.103 153.523 760.939 155.139 767.858 155.038C773.027 155.086 778.166 154.254 783.054 152.576C787.977 150.792 792.613 148.304 796.819 145.188V116.592H782.656V93.1589H842.965V146.062H843.045Z" fill="#1A1A18" fill-opacity="0.05"/>
</svg>
