<svg width="16" height="18" viewBox="0 0 16 18" fill="none" xmlns="http://www.w3.org/2000/svg">
<path d="M15.2803 9.96964C15.1397 9.82903 14.9489 9.75005 14.75 9.75005C14.5511 9.75005 14.3604 9.82903 14.2197 9.96964L8.75002 15.4394V0.75C8.75002 0.551088 8.671 0.360322 8.53035 0.21967C8.3897 0.0790178 8.19893 0 8.00002 0C7.80111 0 7.61034 0.0790178 7.46969 0.21967C7.32903 0.360322 7.25002 0.551088 7.25002 0.75V15.4394L1.78034 9.96964C1.63967 9.82899 1.4489 9.74997 1.24998 9.74998C1.05107 9.74999 0.860301 9.82902 0.719652 9.96968C0.579002 10.1103 0.499991 10.3011 0.5 10.5C0.500009 10.6989 0.579036 10.8897 0.719698 11.0304L7.4697 17.7804C7.47212 17.7828 7.47482 17.7848 7.4773 17.7872C7.49249 17.802 7.5081 17.8164 7.52449 17.8299C7.53365 17.8374 7.54335 17.844 7.55278 17.851C7.56294 17.8586 7.57292 17.8665 7.5835 17.8736C7.59439 17.8809 7.60575 17.8873 7.61696 17.8939C7.62676 17.8998 7.63632 17.9059 7.64644 17.9114C7.6577 17.9174 7.66933 17.9225 7.68082 17.9279C7.69153 17.933 7.70206 17.9383 7.713 17.9429C7.72408 17.9475 7.73543 17.9512 7.74669 17.9552C7.7585 17.9594 7.77022 17.964 7.7823 17.9676C7.79352 17.971 7.80492 17.9735 7.81627 17.9764C7.82863 17.9795 7.8409 17.983 7.85349 17.9855C7.86658 17.9881 7.87977 17.9896 7.8929 17.9915C7.90398 17.9931 7.91483 17.9952 7.926 17.9963C7.95062 17.9987 7.9753 18 8.00002 18C8.02474 18 8.04941 17.9987 8.07404 17.9963C8.08521 17.9952 8.09606 17.9931 8.10713 17.9915C8.12027 17.9896 8.13345 17.9881 8.14654 17.9855C8.15913 17.983 8.1714 17.9795 8.18376 17.9764C8.19512 17.9735 8.20651 17.971 8.21773 17.9676C8.22981 17.964 8.24153 17.9594 8.25334 17.9552C8.26461 17.9512 8.27596 17.9475 8.28703 17.9429C8.29798 17.9383 8.3085 17.933 8.31922 17.9279C8.3307 17.9225 8.34233 17.9174 8.35359 17.9114C8.36371 17.9059 8.37328 17.8998 8.38307 17.8939C8.39429 17.8873 8.40564 17.8809 8.41654 17.8736C8.42711 17.8665 8.43709 17.8586 8.44725 17.851C8.45668 17.844 8.46639 17.8374 8.47554 17.8299C8.49225 17.8162 8.50813 17.8016 8.52361 17.7865C8.52576 17.7843 8.52818 17.7825 8.53034 17.7804L15.2803 11.0304C15.35 10.9607 15.4052 10.878 15.4429 10.787C15.4806 10.696 15.5 10.5985 15.5 10.5C15.5 10.4015 15.4806 10.304 15.4429 10.213C15.4052 10.122 15.35 10.0393 15.2803 9.96964Z" fill="white"/>
</svg>
