<svg width="20" height="20" viewBox="0 0 20 20" fill="none" xmlns="http://www.w3.org/2000/svg">
<path d="M11.4146 9.99999L19.7075 1.70709C19.8949 1.51951 20 1.26523 20 1.00012C19.9999 0.735022 19.8945 0.480801 19.7071 0.293345C19.5196 0.105889 19.2654 0.000540941 19.0003 0.000457813C18.7352 0.000374685 18.4809 0.105564 18.2933 0.292902L10.0004 8.58581L1.70752 0.292902C1.51994 0.105564 1.26566 0.000374685 1.00055 0.000457813C0.735451 0.000540941 0.48123 0.105889 0.293774 0.293345C0.106318 0.480801 0.000970094 0.735022 0.000886966 1.00012C0.000803838 1.26523 0.105993 1.51951 0.293331 1.70709L8.58624 9.99999L0.293331 18.2929C0.200379 18.3857 0.12663 18.496 0.0762992 18.6173C0.0259683 18.7387 4.12434e-05 18.8688 4.91665e-08 19.0001C-4.11451e-05 19.1315 0.0258041 19.2616 0.0760589 19.383C0.126314 19.5043 0.199993 19.6146 0.292887 19.7075C0.385781 19.8004 0.49607 19.8741 0.617449 19.9244C0.738829 19.9746 0.868922 20.0005 1.00029 20.0004C1.13167 20.0004 1.26174 19.9744 1.38309 19.9241C1.50444 19.8738 1.61468 19.8 1.70752 19.7071L10.0004 11.4142L18.2933 19.7071C18.4809 19.8944 18.7352 19.9996 19.0003 19.9995C19.2654 19.9994 19.5196 19.8941 19.7071 19.7066C19.8945 19.5192 19.9999 19.265 20 18.9999C20 18.7348 19.8949 18.4805 19.7075 18.2929L11.4146 9.99999Z" fill="white"/>
</svg>
