<svg width="160" height="42" viewBox="0 0 160 42" fill="none" xmlns="http://www.w3.org/2000/svg">
<g clip-path="url(#clip0_536_1440)">
<path d="M157.452 17.7247C156.836 19.0716 155.822 20.1983 154.546 20.9543C153.191 21.7319 151.648 22.1243 150.084 22.0892C149.049 22.0943 148.019 21.9349 147.033 21.617C146.107 21.3105 145.243 20.8382 144.486 20.2231C143.512 19.4642 142.728 18.4888 142.198 17.3743C141.681 16.2386 141.421 15.0035 141.435 13.7563C141.397 12.6097 141.597 11.4676 142.022 10.4019C142.447 9.3362 143.089 8.36987 143.906 7.56366C144.748 6.75402 145.744 6.12169 146.836 5.70427C147.927 5.28685 149.092 5.09286 150.26 5.13385C151.611 5.10195 152.948 5.40833 154.15 6.02503C155.322 6.68578 156.309 7.63161 157.018 8.77476L154.958 10.2982C154.558 9.37525 153.938 8.56446 153.151 7.9369C152.443 7.42241 151.585 7.15475 150.71 7.1752C150.068 7.15178 149.431 7.29532 148.861 7.59175C148.292 7.88819 147.809 8.32734 147.461 8.86617C146.611 10.3089 146.21 11.9712 146.309 13.642C146.235 15.2687 146.699 16.8745 147.628 18.2122C148.021 18.7627 148.543 19.2093 149.147 19.5133C149.752 19.8172 150.422 19.9693 151.099 19.9565C151.998 19.9422 152.865 19.6195 153.555 19.0424C154.393 18.3345 155.061 17.4466 155.507 16.4451L157.452 17.7247Z" fill="#1A1A18"/>
<path d="M138.536 5.48422H133.991V21.6779H138.536V5.48422Z" fill="#1A1A18"/>
<path d="M122.885 21.6779V7.66268H118.56V5.48422H131.756V7.66268H127.431V21.6779H122.885Z" fill="#1A1A18"/>
<path d="M108.096 17.5571C108.361 18.2487 108.787 18.8674 109.339 19.3623C109.791 19.7633 110.374 19.9854 110.979 19.9869C111.539 20.0144 112.087 19.82 112.504 19.4461C112.696 19.2754 112.849 19.065 112.952 18.8297C113.054 18.5943 113.105 18.3394 113.099 18.0827C113.102 17.639 112.945 17.209 112.657 16.8716C112.237 16.422 111.738 16.0529 111.185 15.7824L110.544 15.432C109.619 14.9783 108.729 14.4563 107.882 13.8705C107.341 13.4332 106.897 12.8886 106.578 12.2709C106.31 11.6913 106.18 11.058 106.196 10.42C106.174 9.7104 106.303 9.00413 106.573 8.34769C106.844 7.69126 107.251 7.09955 107.768 6.61153C108.883 5.59619 110.355 5.0623 111.863 5.12622C112.956 5.10144 114.033 5.38102 114.975 5.93362C115.884 6.48567 116.609 7.29405 117.058 8.2568L115.174 9.52122C114.923 8.84343 114.499 8.24239 113.946 7.77693C113.438 7.38358 112.811 7.17649 112.169 7.19042C111.642 7.17645 111.13 7.36766 110.742 7.72361C110.559 7.89518 110.415 8.10316 110.318 8.33408C110.22 8.56501 110.173 8.81374 110.178 9.0642C110.175 9.50435 110.345 9.92816 110.651 10.2448C111.189 10.7358 111.805 11.1347 112.474 11.4255L112.779 11.5778C113.824 12.0448 114.826 12.6003 115.776 13.2383C116.314 13.6459 116.757 14.1658 117.073 14.7617C117.346 15.359 117.481 16.0096 117.47 16.6659C117.494 17.3962 117.357 18.1229 117.068 18.7943C116.78 19.4657 116.346 20.0654 115.799 20.5506C114.598 21.5899 113.047 22.1345 111.459 22.074C110.282 22.0991 109.119 21.8127 108.088 21.2437C107.126 20.6959 106.351 19.8737 105.861 18.8825L108.096 17.5571Z" fill="#1A1A18"/>
<path d="M102.825 5.48422H98.2791V21.6779H102.825V5.48422Z" fill="#1A1A18"/>
<path d="M64.7795 13.6115C64.6941 15.2532 65.0385 16.8887 65.7787 18.3569C66.0317 18.8639 66.4213 19.2904 66.9037 19.5886C67.386 19.8867 67.9421 20.0446 68.5093 20.0446C69.0766 20.0446 69.6326 19.8867 70.115 19.5886C70.5973 19.2904 70.9869 18.8639 71.2399 18.3569C71.9802 16.8887 72.3246 15.2532 72.2391 13.6115C72.3238 11.9733 71.9822 10.341 71.2476 8.87378C70.9961 8.36274 70.6063 7.93229 70.1223 7.63126C69.6383 7.33023 69.0795 7.17067 68.5093 7.17067C67.9391 7.17067 67.3804 7.33023 66.8964 7.63126C66.4124 7.93229 66.0225 8.36274 65.7711 8.87378C65.0364 10.341 64.6948 11.9733 64.7795 13.6115ZM68.5017 5.1567C69.604 5.15102 70.6987 5.33924 71.7357 5.71273C72.7827 6.07238 73.7424 6.64732 74.5531 7.40041C75.3637 8.15351 76.0071 9.06802 76.4418 10.0849C76.909 11.2094 77.1426 12.417 77.1283 13.6344C77.1446 14.8453 76.9082 16.0464 76.4342 17.161C75.9974 18.1745 75.3541 19.0859 74.5452 19.8374C73.7362 20.5888 72.7794 21.1638 71.7357 21.5256C69.6454 22.262 67.3656 22.262 65.2753 21.5256C64.2993 21.1909 63.3959 20.6739 62.6133 20.0022C61.7312 19.2214 61.0353 18.2532 60.5768 17.1687C60.1037 16.0484 59.8674 14.8425 59.8827 13.6268C59.8721 12.4156 60.111 11.2152 60.5844 10.1001C61.0475 9.02454 61.7399 8.06277 62.6133 7.28183C63.3879 6.60695 64.287 6.08948 65.26 5.75844C66.2979 5.37302 67.3945 5.16944 68.5017 5.1567Z" fill="#1A1A18"/>
<path d="M48.8688 21.6779V5.48422H53.4147V19.4918H59.303V21.6779H48.8688Z" fill="#1A1A18"/>
<path d="M40.2574 19.1186C39.1668 20.0703 37.9138 20.8185 36.5581 21.3275C35.1913 21.8342 33.7447 22.0922 32.2868 22.0892C31.2152 22.1007 30.1487 21.9387 29.1291 21.6094C28.1879 21.2949 27.3117 20.8123 26.5434 20.185C25.5657 19.411 24.7822 18.4199 24.2551 17.2905C23.7313 16.1089 23.471 14.8275 23.4924 13.5354C23.4893 12.3309 23.7496 11.1403 24.2551 10.0468C24.747 8.94883 25.4764 7.97334 26.3908 7.19043C27.1813 6.51361 28.0956 5.99627 29.0833 5.66704C30.1288 5.30961 31.2275 5.13189 32.3326 5.14146C33.6834 5.10957 35.0207 5.41594 36.2225 6.03265C37.4011 6.69151 38.391 7.64078 39.0981 8.79L37.0387 10.3134C36.6383 9.38853 36.0146 8.57724 35.2233 7.95213C34.5184 7.4377 33.6631 7.16996 32.7902 7.19043C32.1472 7.16643 31.5089 7.30965 30.938 7.60608C30.367 7.90251 29.883 8.34197 29.5333 8.8814C28.6802 10.3227 28.279 11.9861 28.3816 13.6572C28.3056 15.2808 28.7608 16.885 29.6782 18.2274C30.0531 18.7751 30.5578 19.2216 31.1473 19.5273C31.7368 19.833 32.393 19.9883 33.0572 19.9793C33.5524 19.9799 34.0444 19.9001 34.514 19.7432C34.9949 19.5547 35.4448 19.2954 35.8488 18.9739V16.2242H34.4759V14.0457H40.2574V19.1186Z" fill="#1A1A18"/>
<path d="M12.753 7.48749V12.3776H13.7293C14.547 12.4478 15.3655 12.2528 16.0633 11.8215C16.3199 11.5763 16.5177 11.2762 16.6419 10.9438C16.766 10.6114 16.8134 10.2553 16.7803 9.90207C16.8113 9.56557 16.7672 9.22638 16.6511 8.90896C16.535 8.59153 16.3499 8.30376 16.1091 8.06638C15.5172 7.6261 14.7855 7.41503 14.0497 7.47226L12.753 7.48749ZM12.753 14.3428V19.6747H13.8208C14.7114 19.7538 15.6034 19.5398 16.3608 19.0653C16.6351 18.799 16.8461 18.4746 16.9781 18.116C17.1101 17.7574 17.1598 17.3738 17.1235 16.9935C17.1493 16.6266 17.0943 16.2585 16.9626 15.9151C16.8308 15.5717 16.6254 15.2612 16.3608 15.0054C15.7113 14.5308 14.9131 14.3038 14.1107 14.3656L12.753 14.3428ZM8.32912 21.6627V5.48423H15.6896C17.1638 5.40102 18.6231 5.817 19.8312 6.66486C20.3272 7.04243 20.7247 7.53375 20.9903 8.09724C21.2558 8.66072 21.3815 9.2798 21.3567 9.90207C21.3963 10.7802 21.0896 11.6389 20.5024 12.2938C19.8137 12.9619 18.9237 13.3848 17.9702 13.4973C19.067 13.7234 20.0788 14.251 20.8914 15.0207C21.2195 15.3477 21.4778 15.7376 21.6509 16.167C21.8239 16.5964 21.9081 17.0563 21.8983 17.519C21.9313 18.1135 21.8178 18.7069 21.5678 19.2474C21.3178 19.7879 20.9389 20.2589 20.4643 20.6192C19.219 21.407 17.7556 21.7803 16.2845 21.6855L8.32912 21.6627Z" fill="#1A1A18"/>
<path d="M95.4874 19.0881C94.4012 20.0534 93.1475 20.8123 91.7881 21.3275C90.4213 21.8342 88.9747 22.0922 87.5168 22.0892C86.4452 22.1007 85.3787 21.9387 84.3591 21.6094C83.2986 21.2579 82.3206 20.6954 81.4842 19.9557C80.6478 19.2159 79.9703 18.3145 79.4928 17.3058C78.9732 16.1254 78.7131 14.8475 78.73 13.5582C78.7316 12.3518 78.9917 11.1597 79.4928 10.062C79.9724 8.95014 80.6973 7.96074 81.6132 7.16757C82.405 6.49264 83.3189 5.97551 84.3057 5.64418C85.3537 5.28618 86.455 5.10847 87.5626 5.11861C88.9134 5.08671 90.2507 5.39309 91.4525 6.00979C92.6255 6.67347 93.6119 7.62183 94.3204 8.76714L92.261 10.2905C91.864 9.36374 91.2428 8.54981 90.4533 7.92165C89.745 7.40819 88.8877 7.14064 88.0126 7.15996C87.3695 7.13595 86.7313 7.27918 86.1603 7.57561C85.5894 7.87203 85.1054 8.31149 84.7557 8.85092C83.9082 10.2945 83.5075 11.9562 83.6039 13.6268C83.5257 15.2517 83.984 16.8573 84.9082 18.197C85.2809 18.745 85.7841 19.192 86.3725 19.4977C86.961 19.8035 87.6163 19.9585 88.2795 19.9489C88.7751 19.9535 89.2678 19.8736 89.7364 19.7127C90.2083 19.5417 90.6528 19.3031 91.0559 19.0044V16.2622H89.6982V14.0152H95.4798V19.0881H95.4874Z" fill="#1A1A18"/>
<path d="M5.61377 0H0V5.46899H5.61377V0Z" fill="#5BC2E7"/>
<path d="M32.9732 32.3645H7.56638V42H32.9732V32.3645Z" fill="#235AA4"/>
<path d="M58.3801 32.3645H32.9733V42H58.3801V32.3645Z" fill="#2479BE"/>
<path d="M83.7794 32.3645H58.3725V42H83.7794V32.3645Z" fill="#4E9DD6"/>
<path d="M109.186 32.3645H83.7794V42H109.186V32.3645Z" fill="#5AC1E8"/>
<path d="M134.593 32.3645H109.186V42H134.593V32.3645Z" fill="#9AD6EA"/>
<path d="M160 32.3645H134.593V42H160V32.3645Z" fill="#EDF1F5"/>
</g>
<defs>
<clipPath id="clip0_536_1440">
<rect width="160" height="42" fill="white"/>
</clipPath>
</defs>
</svg>
